<?xml version="1.0" encoding="UTF-8"?>
<svg xmlns="http://www.w3.org/2000/svg" viewBox="0 0 100 100" width="100" height="100" fill="none">
  <defs>
    <!-- 左半环渐变: 规划(Cyan) -> 设计(Blue) -> 开发(Purple) -->
    <linearGradient id="left-loop-grad" x1="0%" y1="0%" x2="0%" y2="100%">
      <stop offset="0%" stop-color="#06b6d4" />
      <stop offset="50%" stop-color="#3b82f6" />
      <stop offset="100%" stop-color="#a855f7" />
    </linearGradient>

    <!-- 对角线1渐变: 开发(Purple) -> 测试(Pink) -->
    <linearGradient id="diag1-grad" x1="0%" y1="100%" x2="100%" y2="0%">
      <stop offset="0%" stop-color="#a855f7" />
      <stop offset="100%" stop-color="#ec4899" />
    </linearGradient>

    <!-- 右半环渐变: 测试(Pink) -> 部署(Orange) -> 运维(Teal) -->
    <linearGradient id="right-loop-grad" x1="0%" y1="0%" x2="0%" y2="100%">
      <stop offset="0%" stop-color="#ec4899" />
      <stop offset="50%" stop-color="#f97316" />
      <stop offset="100%" stop-color="#10b981" />
    </linearGradient>

    <!-- 对角线2渐变: 运维(Teal) -> 规划(Cyan) -->
    <linearGradient id="diag2-grad" x1="100%" y1="100%" x2="0%" y2="0%">
      <stop offset="0%" stop-color="#10b981" />
      <stop offset="100%" stop-color="#06b6d4" />
    </linearGradient>

    <!-- 3D扭转遮罩 -->
    <mask id="crossing-mask">
      <rect x="0" y="0" width="100" height="100" fill="white" />
      <path d="M 42,56 C 45,54 48,52 50,50 C 52,48 55,46 58,44" stroke="black" stroke-width="10" stroke-linecap="round" fill="none" />
    </mask>

    <!-- 阴影滤镜 -->
    <filter id="glow-filter" x="-20%" y="-20%" width="140%" height="140%">
      <feGaussianBlur stdDeviation="3" result="blur" />
      <feComposite in="SourceGraphic" in2="blur" operator="over" />
    </filter>
  </defs>

  <!-- 莫比乌斯环背景发光层 -->
  <g opacity="0.4" filter="url(#glow-filter)" stroke-width="8" stroke-linecap="round">
    <path d="M 20,25 C 8,25 8,75 20,75" stroke="url(#left-loop-grad)" />
    <path d="M 80,75 C 68,75 58,62 50,50 C 42,38 32,25 20,25" stroke="url(#diag2-grad)" mask="url(#crossing-mask)" />
    <path d="M 20,75 C 32,75 42,62 50,50 C 58,38 68,25 80,25" stroke="url(#diag1-grad)" />
    <path d="M 80,25 C 92,25 92,75 80,75" stroke="url(#right-loop-grad)" />
  </g>

  <!-- 莫比乌斯环实体精细层 -->
  <g stroke-width="5" stroke-linecap="round">
    <path d="M 20,25 C 8,25 8,75 20,75" stroke="url(#left-loop-grad)" />
    <path d="M 80,75 C 68,75 58,62 50,50 C 42,38 32,25 20,25" stroke="url(#diag2-grad)" mask="url(#crossing-mask)" />
    <path d="M 20,75 C 32,75 42,62 50,50 C 58,38 68,25 80,25" stroke="url(#diag1-grad)" />
    <path d="M 80,25 C 92,25 92,75 80,75" stroke="url(#right-loop-grad)" />
  </g>
</svg>
